# AST/ASF file generated using VICON BodyLanguage
# -----------------------------------------------
:version 1.10
:name VICON
:units
  mass 1.0
  length 0.45
  angle deg
:documentation
   .ast/.asf automatically generated from VICON data using
   VICON BodyBuilder and BodyLanguage model FoxedUp or BRILLIANT.MOD
:root
   order TX TY TZ RX RY RZ
   axis XYZ
   position 0 0 0  
   orientation 0 0 0 
:bonedata
  begin
     id 1 
     name lhipjoint
     direction 0.692814 -0.645514 0.321437 
     length 2.38754 
     axis 0 0 0  XYZ
  end
  begin
     id 2 
     name lfemur
     direction 0.34202 -0.939693 0  
     length 6.41921  
     axis 0 0 20  XYZ
    dof rx ry rz
    limits (-160.0 20.0)
           (-70.0 70.0)
           (-60.0 70.0)
  end
  begin
     id 3 
     name ltibia
     direction 0.34202 -0.939693 0   
     length 6.98247   
     axis 0 0 20   XYZ
    dof rx
    limits (-10.0 170.0)
  end
  begin
     id 4 
     name lfoot
     direction 0.0947186 -0.260237 0.960888   
     length 1.83034   
     axis -90 7.62852e-016 20   XYZ
    dof rx rz
    limits (-45.0 90.0)
           (-70.0 20.0)
  end
  begin
     id 5 
     name ltoes
     direction 1.53538e-011 -4.21952e-011 1   
     length 0.920499   
     axis -90 7.62852e-016 20   XYZ
    dof rx
    limits (-90.0 20.0)
  end
  begin
     id 6 
     name rhipjoint
     direction -0.631686 -0.693949 0.345555   
     length 2.2209  
     axis 0 0 0  XYZ 
  end
  begin
     id 7 
     name rfemur
     direction -0.34202 -0.939693 0   
     length 6.49542   
     axis 0 0 -20   XYZ
    dof rx ry rz
    limits (-160.0 20.0)
           (-70.0 70.0)
           (-70.0 60.0)
  end
  begin
     id 8 
     name rtibia
     direction -0.34202 -0.939693 0   
     length 7.21712   
     axis 0 0 -20   XYZ
    dof rx
    limits (-10.0 170.0)
 end
 begin
     id 9 
     name rfoot
     direction -0.0825378 -0.226771 0.970444   
     length 1.89724  
     axis -90 -7.62852e-016 -20   XYZ
    dof rx rz
    limits (-45.0 90.0)
           (-20.0 70.0)
  end
  begin
     id 10 
     name rtoes
     direction -1.53515e-011 -4.22016e-011 1   
     length 0.955868   
     axis -90 -7.62852e-016 -20   XYZ
    dof rx
    limits (-90.0 20.0)
  end
  begin
     id 11 
     name lowerback
     direction -0.0104711 0.984802 -0.173368   
     length 1.84931   
     axis 0 0 0   XYZ
    dof rx ry rz
    limits (-20.0 45.0)
           (-30.0 30.0)
           (-30.0 30.0)
  end
  begin
     id 12 
     name upperback
     direction -0.00286433 0.999996 -0.000382853   
     length 1.85768   
     axis 0 0 0   XYZ
    dof rx ry rz
    limits (-20.0 45.0)
           (-30.0 30.0)
           (-30.0 30.0)
  end
  begin
     id 13 
     name thorax
     direction 0.00167534 0.996793 0.0800069   
     length 1.92   
     axis 0 0 0   XYZ
    dof rx ry rz
    limits (-20.0 45.0)
           (-30.0 30.0)
           (-30.0 30.0)
  end
  begin
     id 14 
     name lowerneck
     direction -0.0672491 0.995415 0.068018   
     length 1.58923   
     axis 0 0 0   XYZ
    dof rx ry rz
    limits (-20.0 45.0)
           (-30.0 30.0)
           (-30.0 30.0)
  end
  begin
     id 15 
     name upperneck
     direction 0.0958019 0.982476 -0.159884   
     length 1.60189   
     axis 0 0 0   XYZ
    dof rx ry rz
    limits (-20.0 45.0)
           (-30.0 30.0)
           (-30.0 30.0)
  end
  begin
     id 16
     name head
     direction 0.032989 0.997338 -0.0650226  
     length 1.61681  
     axis 0 0 0   XYZ
    dof rx ry rz
    limits (-20.0 45.0)
           (-30.0 30.0)
           (-30.0 30.0)
  end
  begin
     id 17 
     name lclavicle
     direction 0.954279 0.298875 -0.00496069  
     length 2.99449  
     axis 0 0 0   XYZ
    dof ry rz
    limits (-20.0 10.0)
           (0.0 20.0)
  end
  begin
     id 18 
     name lhumerus
     direction 1 -4.48985e-011 -4.2057e-027   
     length 4.79185   
     axis 180 -30 -90   XYZ
    dof rx ry rz
    limits (-60.0 90.0)
           (-90.0 90.0)
           (-90.0 90.0)
  end
  begin
     id 19
     name lradius
     direction 1 -4.48945e-011 1.15441e-028   
     length 2.65553   
     axis 180 -30 -90   XYZ
    dof rx
    limits (-10.0 170.0)
  end
  begin
     id 20
     name lwrist
     direction 1 -4.4899e-011 4.8894e-028   
     length 1.32777   
     axis -2.56392e-016 90 90   XYZ
    dof ry
    limits (-180.0 0.0)
 end
  begin
     id 21 
     name lhand
     direction 1 -4.48908e-011 9.7788e-028   
     length 0.743904   
     axis -6.23971e-016 90 90   XYZ
    dof rx rz
    limits (-90.0 90.0)
           (-45.0 45.0)
  end
  begin
     id 22 
     name lfingers
     direction 1 -4.49068e-011 1.95576e-027   
     length 0.599754   
     axis -1.24794e-015 90 90   XYZ
    dof rx
    limits (0.0 90.0)
  end
  begin
     id 23
     name lthumb
     direction 0.707107 -6.34883e-011 0.707107   
     length 0.861131   
     axis -90 45 2.85299e-015   XYZ
    dof rx rz
    limits (-45.0 45.0)
           (-45.0 45.0)
  end
  begin
     id 24 
     name rclavicle
     direction -0.957921 0.286916 0.00811568   
     length 3.06817  
     axis 0 0 0   XYZ 
    dof ry rz
    limits (-10.0 20.0)
           (-20.0 0.0)
  end
  begin
     id 25 
     name rhumerus
     direction -1 -4.48971e-011 -3.07942e-027  
     length 4.77254   
     axis 180 30 90   XYZ
    dof rx ry rz
    limits (-90.0 60.0)
           (-90.0 90.0)
           (-90.0 90.0)
  end
  begin
     id 26 
     name rradius
     direction -1 -4.48957e-011 -9.6815e-028   
     length 2.75995   
     axis 180 30 90   XYZ
    dof rx
    limits (-10.0 170.0)
  end
  begin
     id 27 
     name rwrist
     direction -1 -4.48979e-011 4.8894e-028   
     length 1.37997   
     axis -2.56392e-016 -90 -90   XYZ
    dof ry
    limits (-180.0 0.0)
  end
  begin
     id 28
     name rhand
     direction -1 -4.48906e-011 9.7788e-028   
     length 0.701619   
     axis -6.23971e-016 -90 -90   XYZ
    dof rx rz
    limits (-90.0 90.0)
           (-45.0 45.0)
  end
  begin
     id 29
     name rfingers
     direction -1 -4.49018e-011 1.95576e-027   
     length 0.565663   
     axis -1.24794e-015 -90 -90   XYZ
    dof rx
    limits (0.0 90.0)
  end
  begin
     id 30
     name rthumb
     direction -0.707107 -6.34881e-011 0.707107   
     length 0.812183   
     axis -90 -45 -2.85299e-015   XYZ
    dof rx rz
    limits (-45.0 45.0)
           (-45.0 45.0)
  end
:hierarchy
  begin
    root lhipjoint rhipjoint lowerback
    lhipjoint lfemur
    lfemur ltibia
    ltibia lfoot
    lfoot ltoes
    rhipjoint rfemur
    rfemur rtibia
    rtibia rfoot
    rfoot rtoes
    lowerback upperback
    upperback thorax
    thorax lowerneck lclavicle rclavicle
    lowerneck upperneck
    upperneck head
    lclavicle lhumerus
    lhumerus lradius
    lradius lwrist
    lwrist lhand lthumb
    lhand lfingers
    rclavicle rhumerus
    rhumerus rradius
    rradius rwrist
    rwrist rhand rthumb
    rhand rfingers
  end

#!OML:ASF F:\VICON\USERDATA\INSTALL\rory3\rory3.ASF
:FULLY-SPECIFIED
:DEGREES
1
root 0.301371 16.1148 0.240616 -1.27829 -0.86093 -1.68286
lowerback 9.95693 0.555892 -0.932644
upperback -1.69405 0.628189 0.0522405
thorax -7.39497 0.347856 0.478889
lowerneck -5.43843 -12.9132 -17.1848
upperneck 18.2069 -17.8464 10.6145
head 9.12385 -8.84005 4.2873
rclavicle 2.02512e-015 3.57812e-015
rhumerus -40.9284 43.8658 -114.923
rradius 71.0156
rwrist 9.58009
rhand -14.8412 18.5206
rfingers 7.12502
rthumb 11.3179 -11.154
lclavicle 2.02512e-015 3.57812e-015
lhumerus -27.3956 -26.5705 101.828
lradius 31.7411
lwrist 4.95955
lhand -8.49946 10.2236
lfingers 7.12502
lthumb 17.4282 39.4623
rfemur 5.59526 11.9623 19.4273
rtibia 9.06681
rfoot -9.78397 -13.938
rtoes -11.6871
lfemur 10.3079 -11.9709 -16.5319
ltibia -2.54444e-014
lfoot -5.89798 11.474
ltoes -11.8847
2
root 0.295511 16.1046 0.234078 -1.78621 -1.87438 -1.64398
lowerback 10.5611 0.921216 -1.17375
upperback -1.59388 1.07916 0.0733677
thorax -7.64713 0.578886 0.555689
lowerneck -5.52092 -12.8647 -17.1245
upperneck 18.3131 -17.7751 10.5793
head 9.15494 -8.80247 4.27297
rclavicle 2.4876e-014 -7.15625e-015
rhumerus -40.6858 43.0533 -114.517
rradius 70.235
rwrist 9.13388
rhand -15.03 18.3042
rfingers 7.12502
rthumb 11.1358 -11.3803
lclavicle 2.4876e-014 -7.15625e-015
lhumerus -27.3885 -25.6865 101.499
lradius 31.3134
lwrist 5.28926
lhand -8.49292 10.2991
lfingers 7.12502
lthumb 17.4345 39.5373
rfemur 5.70674 12.9849 19.4772
rtibia 9.64173
rfoot -10.1253 -13.9039
rtoes -9.40884
lfemur 11.0776 -10.9886 -16.6545
ltibia -3.81667e-014
lfoot -6.12793 11.466
ltoes -11.9855
3
root 0.290186 16.1005 0.229871 -2.08615 -2.41995 -1.64238
lowerback 10.9176 1.12606 -1.32318
upperback -1.52583 1.32873 0.0897618
thorax -7.78789 0.707268 0.608807
lowerneck -5.65468 -12.8078 -17.0017
upperneck 18.4246 -17.6813 10.4972
head 9.18293 -8.75191 4.23455
rclavicle 2.75193e-015 9.93923e-015
rhumerus -40.2846 42.1295 -113.985
rradius 69.3003
rwrist 9.00159
rhand -15.0498 18.0388
rfingers 7.12502
rthumb 11.1167 -11.6468
lclavicle 2.75193e-015 9.93923e-015
lhumerus -27.3615 -24.6431 101.091
lradius 30.974
lwrist 5.49186
lhand -8.34303 10.6359
lfingers 7.12502
lthumb 17.5788 39.8612
rfemur 5.89283 13.5339 19.5492
rtibia 9.71227
rfoot -9.98617 -13.97
rtoes -10.1309
lfemur 11.51 -10.4635 -16.683
ltibia -3.65764e-014
lfoot -6.27815 11.4603
ltoes -11.9917
4
root 0.288241 16.1023 0.227157 -2.08158 -2.34335 -1.67914
lowerback 10.9614 1.09189 -1.31553
upperback -1.52788 1.28375 0.09284
thorax -7.8141 0.68519 0.614857
lowerneck -5.77475 -12.7367 -16.9145
upperneck 18.4901 -17.5718 10.465
head 9.19886 -8.69297 4.22183
rclavicle -2.05432e-014 4.37326e-015
rhumerus -39.7857 40.9889 -113.317
rradius 68.3175
rwrist 9.23123
rhand -14.809 18.0083
rfingers 7.12502
rthumb 11.3489 -11.6646
lclavicle -2.05432e-014 4.37326e-015
lhumerus -27.3668 -23.6186 100.689
lradius 30.7755
lwrist 5.72365
lhand -8.2971 11.2477
lfingers 7.12502
lthumb 17.6229 40.4691
rfemur 5.73887 13.4551 19.594
rtibia 9.9054
rfoot -9.741 -14.0526
rtoes -12.8974
lfemur 11.4709 -10.5428 -16.6345
ltibia 1.27222e-014
lfoot -6.24501 11.4685
ltoes -12.052
5
root 0.2909 16.1031 0.227828 -2.0334 -2.17289 -1.6457
lowerback 10.9223 1.02621 -1.30255
upperback -1.54243 1.19637 0.0661423
thorax -7.80437 0.641506 0.595192
lowerneck -5.85507 -12.679 -16.8914
upperneck 18.5419 -17.4961 10.5112
head 9.22204 -8.64941 4.2416
rclavicle -2.38324e-014 8.34896e-015
rhumerus -39.4477 39.8206 -112.725
rradius 67.4256
rwrist 9.37137
rhand -14.8598 17.5978
rfingers 7.12502
rthumb 11.3 -12.0778
lclavicle -2.38324e-014 8.34896e-015
lhumerus -27.434 -22.7028 100.357
lradius 30.5585
lwrist 5.93339
lhand -8.42933 11.847
lfingers 7.12502
lthumb 17.4957 41.0797
rfemur 5.76258 13.2862 19.5357
rtibia 9.75853
rfoot -9.58255 -14.0743
rtoes -14.1833
lfemur 11.3849 -10.7064 -16.682
ltibia 4.29375e-014
lfoot -6.19841 11.4612
ltoes -12.0713
6
root 0.294814 16.1041 0.231191 -1.94082 -2.09092 -1.48808
lowerback 10.797 0.997978 -1.39079
upperback -1.57112 1.14278 -0.00920914
thorax -7.76232 0.617532 0.576319
lowerneck -5.87752 -12.6146 -16.8521
upperneck 18.5485 -17.4132 10.5377
head 9.21447 -8.6055 4.25765
rclavicle 1.44895e-014 7.95139e-016
rhumerus -39.1788 38.6818 -112.21
rradius 66.4764
rwrist 9.48288
rhand -15.0883 17.0459
rfingers 7.12502
rthumb 11.0796 -12.6416
lclavicle 1.44895e-014 7.95139e-016
lhumerus -27.4681 -21.5057 99.8773
lradius 30.1544
lwrist 5.90487
lhand -8.42986 11.8127
lfingers 7.12502
lthumb 17.4952 41.0454
rfemur 5.82605 13.2109 19.3259
rtibia 9.47862
rfoot -9.44548 -14.0824
rtoes -14.3357
lfemur 11.2775 -10.7726 -16.8604
ltibia -3.81667e-014
lfoot -6.17867 11.4582
ltoes -11.7124
7
root 0.309903 16.1129 0.25571 -1.33184 -0.352703 -1.52922
lowerback 9.83538 0.34694 -0.970444
upperback -1.64439 0.337061 -0.0741692
thorax -7.26682 0.203706 0.414894
lowerneck -5.91438 -12.5444 -16.7979
upperneck 18.5041 -17.3104 10.5381
head 9.18491 -8.5527 4.26542
rclavicle -1.07437e-014 -5.56597e-015
rhumerus -38.7565 37.6197 -111.573
rradius 65.4106
rwrist 9.57352
rhand -15.0372 16.7776
rfingers 7.12502
rthumb 11.1288 -12.9073
lclavicle -1.07437e-014 -5.56597e-015
lhumerus -27.3723 -20.1182 99.2571
lradius 29.6196
lwrist 5.84458
lhand -8.24473 11.3376
lfingers 7.12502
lthumb 17.6734 40.5544
rfemur 5.68609 11.4582 19.2762
rtibia 9.23999
rfoot -9.72247 -14.0473
rtoes -13.6619
lfemur 10.3268 -12.47 -16.7726
ltibia 1.43125e-014
lfoot -5.88789 11.513
ltoes -11.9817
8
root 0.321267 16.1153 0.269197 -1.11103 0.300739 -1.58424
lowerback 9.42602 0.0943903 -0.687546
upperback -1.64945 0.0363013 -0.108122
thorax -7.03251 0.0434108 0.268023
lowerneck -5.96772 -12.4941 -16.8019
upperneck 18.4883 -17.2437 10.6067
head 9.18595 -8.51436 4.29724
rclavicle 8.69683e-017 -5.1684e-015
rhumerus -38.3136 36.4271 -110.838
rradius 64.3442
rwrist 9.78723
rhand -14.7163 16.624
rfingers 7.12502
rthumb 11.4384 -13.044
lclavicle 8.69683e-017 -5.1684e-015
lhumerus -27.3416 -19.0493 98.7325
lradius 29.1362
lwrist 5.95562
lhand -8.21775 11.1203
lfingers 7.12502
lthumb 17.6993 40.3347
rfemur 5.7164 10.801 19.2756
rtibia 9.01113
rfoot -9.79926 -14.0057
rtoes -13.4759
lfemur 9.98859 -13.1077 -16.7063
ltibia -2.8625e-014
lfoot -5.80694 11.535
ltoes -12.1692
9
root 0.326361 16.1142 0.277015 -1.07443 0.206009 -1.5857
lowerback 9.31502 0.103618 -0.634281
upperback -1.64363 0.0544568 -0.129495
thorax -6.96281 0.0494566 0.212905
lowerneck -6.06408 -12.4433 -16.7577
upperneck 18.5423 -17.1717 10.6228
head 9.20836 -8.47281 4.30224
rclavicle -7.28359e-016 -8.34896e-015
rhumerus -37.9857 35.1533 -110.134
rradius 63.2659
rwrist 10.1368
rhand -14.4975 16.4446
rfingers 7.12502
rthumb 11.6494 -13.2116
lclavicle -7.28359e-016 -8.34896e-015
lhumerus -27.4261 -18.058 98.2524
lradius 28.7498
lwrist 6.06402
lhand -8.55737 11.1152
lfingers 7.12502
lthumb 17.3725 40.3588
rfemur 5.87189 10.8937 19.2382
rtibia 8.68148
rfoot -9.76378 -13.941
rtoes -12.3283
lfemur 10.0036 -13.0086 -16.7172
ltibia 9.54166e-015
lfoot -5.85839 11.5243
ltoes -12.1796
10
root 0.327269 16.1141 0.284452 -1.07903 -0.00460897 -1.62495
lowerback 9.23287 0.143243 -0.632804
upperback -1.62097 0.109262 -0.115223
thorax -6.8922 0.076323 0.218931
lowerneck -6.195 -12.3699 -16.6944
upperneck 18.5989 -17.0566 10.6024
head 9.22621 -8.41144 4.29719
rclavicle -9.84916e-015 -1.19271e-015
rhumerus -37.6395 33.9187 -109.453
rradius 62.1078
rwrist 10.3587
rhand -14.355 16.2859
rfingers 7.12502
rthumb 11.7868 -13.3624
lclavicle -9.84916e-015 -1.19271e-015
lhumerus -27.4657 -16.7075 97.6606
lradius 28.3379
lwrist 5.77062
lhand -8.73458 11.0922
lfingers 7.12502
lthumb 17.2019 40.3508
rfemur 5.98319 11.104 19.2747
rtibia 8.55297
rfoot -10.03 -13.876
rtoes -9.36832
lfemur 10.0936 -12.7989 -16.6803
ltibia -2.06736e-014
lfoot -5.94008 11.5074
ltoes -12.7002
11
root 0.327633 16.1137 0.287681 -1.07177 -0.0844214 -1.66241
lowerback 9.14576 0.162954 -0.602684
upperback -1.57377 0.140154 -0.112554
thorax -6.79242 0.0899887 0.200416
lowerneck -6.31484 -12.3106 -16.6977
upperneck 18.6068 -16.9795 10.7167
head 9.25006 -8.36173 4.34218
rclavicle 1.65706e-015 7.95139e-016
rhumerus -37.1602 32.5863 -108.671
rradius 60.9068
rwrist 10.4243
rhand -14.0119 16.0679
rfingers 7.12502
rthumb 12.1177 -13.5612
lclavicle 1.65706e-015 7.95139e-016
lhumerus -27.5137 -15.5924 97.1309
lradius 28.0474
lwrist 5.54621
lhand -8.8293 11.2714
lfingers 7.12502
lthumb 17.1108 40.5379
rfemur 6.05566 11.1832 19.3081
rtibia 8.39431
rfoot -9.98259 -13.8825
rtoes -9.13506
lfemur 10.1171 -12.7195 -16.6391
ltibia -2.8625e-014
lfoot -5.97172 11.5079
ltoes -12.8759
12
root 0.328087 16.1138 0.287188 -1.08693 -0.0401013 -1.70105
lowerback 9.15094 0.149326 -0.558191
upperback -1.52754 0.127103 -0.115064
thorax -6.74607 0.0816066 0.174746
lowerneck -6.47488 -12.2683 -16.6807
upperneck 18.6537 -16.9221 10.8098
head 9.29375 -8.31971 4.37133
rclavicle 7.81162e-016 -5.96354e-015
rhumerus -36.6652 31.1655 -107.859
rradius 59.6485
rwrist 10.6793
rhand -13.6707 15.8688
rfingers 7.12502
rthumb 12.4466 -13.7406
lclavicle 7.81162e-016 -5.96354e-015
lhumerus -27.6352 -14.7939 96.6929
lradius 27.8811
lwrist 5.61233
lhand -8.95932 11.6517
lfingers 7.12502
lthumb 16.9856 40.929
rfemur 6.15845 11.1383 19.3475
rtibia 8.13931
rfoot -9.51111 -13.9522
rtoes -12.2492
lfemur 10.1219 -12.7648 -16.6097
ltibia 3.18055e-015
lfoot -5.93177 11.5139
ltoes -12.5803
13
root 0.337053 16.1139 0.28515 -1.11877 0.302212 -1.82694
lowerback 9.25844 0.00812199 -0.284912
upperback -1.54296 -0.0301323 -0.114027
thorax -6.82272 -0.00598093 0.0452884
lowerneck -6.498 -12.1964 -16.685
upperneck 18.6394 -16.8342 10.895
head 9.28792 -8.27148 4.41467
rclavicle -3.14794e-015 -6.75868e-015
rhumerus -36.3541 29.7946 -107.112
rradius 58.394
rwrist 10.9565
rhand -13.8816 15.201
rfingers 7.12502
rthumb 12.2432 -14.4206
lclavicle -3.14794e-015 -6.75868e-015
lhumerus -27.8802 -13.873 96.2181
lradius 27.6532
lwrist 5.50862
lhand -9.12531 11.7998
lfingers 7.12502
lthumb 16.8258 41.0908
rfemur 6.25088 10.7957 19.4529
rtibia 8.03771
rfoot -9.32373 -13.9456
rtoes -13.6578
lfemur 10.0628 -13.1094 -16.5089
ltibia 1.43125e-014
lfoot -5.84963 11.5138
ltoes -12.5132
14
root 0.363828 16.1141 0.284228 -1.15251 1.2046 -1.77158
lowerback 9.35452 -0.314572 0.142984
upperback -1.56152 -0.41903 -0.23803
thorax -6.90027 -0.216057 -0.266927
lowerneck -6.45934 -12.1574 -16.6192
upperneck 18.5758 -16.7912 10.9099
head 9.24726 -8.24785 4.42021
rclavicle -1.32627e-015 -3.97569e-015
rhumerus -36.0596 28.3989 -106.338
rradius 57.1225
rwrist 11.2013
rhand -14.1722 14.4396
rfingers 7.12502
rthumb 11.9631 -15.1986
lclavicle -1.32627e-015 -3.97569e-015
lhumerus -28.0427 -12.8527 95.6732
lradius 27.1338
lwrist 5.22415
lhand -9.28336 11.3576
lfingers 7.12502
lthumb 16.6737 40.6615
rfemur 6.41531 9.90414 19.2834
rtibia 7.99293
rfoot -9.45287 -13.9112
rtoes -13.2893
lfemur 9.88972 -14.0009 -16.6835
ltibia 2.06736e-014
lfoot -5.652 11.591
ltoes -12.8353
15
root 0.339389 16.1131 0.288748 -1.13357 0.508458 -1.71526
lowerback 9.27474 -0.0345745 -0.39785
upperback -1.53961 -0.102974 -0.152411
thorax -6.82819 -0.0380384 0.0795396
lowerneck -6.46462 -12.125 -16.5307
upperneck 18.4696 -16.7338 10.8604
head 9.1897 -8.21922 4.40015
rclavicle 4.24592e-015 1.19271e-015
rhumerus -35.6627 27.0441 -105.509
rradius 55.7414
rwrist 11.5109
rhand -13.5492 14.4167
rfingers 7.12502
rthumb 12.5637 -15.1856
lclavicle 4.24592e-015 1.19271e-015
lhumerus -28.1077 -11.7508 95.0959
lradius 26.6235
lwrist 4.92028
lhand -9.37221 11.048
lfingers 7.12502
lthumb 16.5881 40.3591
rfemur 6.35402 10.5923 19.3335
rtibia 7.97879
rfoot -9.51171 -13.918
rtoes -13.0402
lfemur 10.0561 -13.3118 -16.6475
ltibia 2.22639e-014
lfoot -5.89202 11.5808
ltoes -12.7515
